<svg width="67" height="44" viewBox="0 0 67 44" fill="none" xmlns="http://www.w3.org/2000/svg">
<g clip-path="url(#clip0_567_4328)">
<path d="M36.4465 0.247478C39.7464 0.247478 43.0444 0.254906 46.3443 0.243764C48.1028 0.238193 49.8614 0.176912 51.6181 0.191768C51.672 0.191768 51.7277 0.201053 51.7815 0.217766C52.2142 0.342184 52.2235 0.984702 51.7889 1.10169C51.7871 1.10169 51.7834 1.10169 51.7815 1.10355C48.7453 1.87234 46.3183 3.67362 44.0862 5.73488C40.3982 9.14245 36.946 12.7784 33.3175 16.2491C32.7493 16.8879 32.298 17.3392 31.6351 18.0021C34.1624 19.2723 36.2237 20.8043 37.9674 22.86C41.1503 26.6093 44.2106 30.4607 47.4027 34.1988C49.1186 36.208 50.9774 38.1003 52.8233 39.9926C54.3813 41.5896 56.3089 42.5367 58.5094 42.9378C58.5465 42.9452 58.5837 42.9601 58.6189 42.9823C58.9681 43.1978 58.7861 43.7493 58.3757 43.7511C54.1937 43.7808 50.0137 44.2098 46.0713 42.1931C43.7463 41.0028 42.0416 39.1774 40.4632 37.2071C37.1243 33.0345 34.0009 28.9324 30.5933 24.9009C29.1708 23.6437 28.5525 22.9046 27.5794 22.2305C27.1801 21.9538 26.6658 21.9594 26.1904 22.2973C24.4634 23.6697 22.6677 24.5666 20.5321 25.5397C16.2406 27.1719 12.0067 26.9212 7.88233 25.0958C3.9288 23.3428 1.10061 20.4459 0.22411 16.1024C-0.540969 12.3049 0.682786 9.0106 3.31042 6.16384C5.4571 3.83704 8.16088 3.14252 11.1655 3.13509C13.2156 3.12952 13.2509 3.13138 13.3994 5.14993C13.6836 9.03103 12.3911 12.2938 9.28992 14.693C7.99375 15.6958 6.4803 16.4126 4.77002 16.433C4.44133 16.4367 3.87309 16.2231 3.82667 16.0152C3.69482 15.4432 3.63168 14.7543 4.37448 14.4441C5.07828 14.1489 5.79879 13.8945 6.5063 13.6085C9.2305 12.5092 10.3317 10.2492 10.8089 7.55658C10.8999 7.04405 10.9519 6.5241 10.9816 6.00414C11.0169 5.41919 10.8015 5.14064 10.1219 5.14435C7.52764 5.16107 4.16092 7.15919 2.81647 10.3941C0.344814 16.3438 4.46918 22.0485 9.40691 23.8609C12.8962 25.1423 16.3186 24.9974 19.7893 23.7904C21.3325 23.2537 22.7159 22.5183 24.1143 21.6567C25.8023 20.6149 27.5367 19.4432 28.9963 18.0671C31.5255 15.6809 33.8987 13.1201 36.246 10.55C37.6276 9.03846 38.868 7.39131 40.1011 5.75345C40.6712 4.9958 40.8216 4.05059 40.5857 3.11467C40.2886 1.92805 39.1317 1.35053 37.7353 1.07755C37.2766 0.988416 36.8049 0.87514 36.3407 0.769292C36.3388 0.769292 36.3741 0.609591 36.3908 0.52974C36.4094 0.435034 36.4465 0.245621 36.4484 0.247478H36.4465Z" fill="black"/>
<path d="M15.2636 1.27209C17.1466 1.44851 18.7548 3.03437 18.7678 4.90807C18.8068 10.1448 18.7864 15.3815 18.7882 20.6163C18.7882 21.2607 18.7882 21.9069 18.7882 22.5662C18.7882 22.776 18.9943 22.9301 19.193 22.8633C21.5013 22.0871 23.4121 20.7909 25.2097 19.3127C25.5551 19.0453 25.6126 18.6238 25.6201 18.2672C25.7073 14.0482 25.8281 9.82909 25.7872 5.61002C25.7668 3.53576 27.1298 1.19224 30.0694 1.07525C30.0991 1.07525 30.127 1.06968 30.1567 1.06411C30.5504 0.987973 30.4947 0.375167 30.0954 0.365882C30.0917 0.365882 30.088 0.365882 30.0861 0.365882C24.777 0.349169 19.4679 0.35474 14.1587 0.358454C14.1402 0.358454 14.1197 0.358454 14.1012 0.358454C13.6926 0.365882 13.6054 0.937835 13.9935 1.06411L15.2655 1.27209H15.2636Z" fill="black"/>
<path d="M19.1309 27.4375C21.2256 27.1218 23.4168 26.0299 25.2627 24.3363C25.4075 24.2044 25.6396 24.3084 25.6396 24.5034C25.6396 24.7095 25.6396 24.8841 25.6396 25.0605C25.6972 29.4356 25.6173 33.8181 25.8625 38.1838C26.0296 41.1495 27.4688 42.6648 30.4195 42.7446C30.5421 42.7483 30.6739 42.7613 30.7835 42.7929C30.854 42.8133 30.9153 42.8263 30.9785 42.8635C31.3016 43.0584 31.2273 43.5747 30.8559 43.6378C30.8355 43.6415 30.8132 43.6434 30.7928 43.6434C28.2933 43.675 25.7938 43.662 23.2943 43.662C20.1485 43.662 17.1031 43.6657 13.9387 43.6657C13.9183 43.649 13.8997 43.6322 13.883 43.6155C13.6751 43.4187 13.6583 43.0807 13.8756 42.8932C13.9313 42.8449 13.9982 42.8096 14.0799 42.804C17.8421 42.7855 18.6629 40.4995 18.7632 37.1829C18.8449 34.442 18.7743 31.6974 18.7855 28.9546C18.7855 28.5609 18.7688 28.1802 18.8096 27.768C18.8263 27.5972 18.96 27.4635 19.129 27.4393L19.1309 27.4375Z" fill="black"/>
<path d="M63.4739 43.4775C61.8416 43.4756 60.4916 42.1962 60.4786 40.64C60.4674 39.2361 61.9865 37.927 63.6243 37.9307C65.3365 37.9344 66.6698 39.1377 66.6865 40.692C66.7032 42.3187 65.3643 43.4793 63.4739 43.4775Z" fill="black"/>
<path d="M4.20138 12.8861C4.51707 10.5389 6.42419 8.24736 8.40931 7.90939C8.61173 7.87596 8.74357 8.11737 8.61173 8.27335C7.26355 9.88151 5.96366 11.4302 4.59878 13.0551C4.45579 13.2259 4.17167 13.1071 4.20138 12.8861Z" fill="black"/>
</g>
<defs>
<clipPath id="clip0_567_4328">
<rect width="66.69" height="43.6206" fill="white" transform="translate(0 0.189453)"/>
</clipPath>
</defs>
</svg>
