<svg width="24" height="24" viewBox="0 0 24 24" fill="none" xmlns="http://www.w3.org/2000/svg">
<path d="M6.29656 20.5436C7.3215 20.1961 8.43175 20.3219 9.47007 20.627C10.9643 21.0662 12.557 21.1128 14.0909 20.7478C16.1777 20.2514 18.0186 19.0259 19.2818 17.2922C20.545 15.5586 21.1474 13.4308 20.9806 11.2922C20.8137 9.15366 19.8886 7.14502 18.3718 5.62824C16.855 4.11146 14.8464 3.1863 12.7078 3.01946C10.5693 2.85263 8.44147 3.45509 6.70782 4.71829C4.97417 5.98149 3.74869 7.82236 3.25222 9.90916C2.88729 11.4431 2.93389 13.0357 3.37303 14.53C3.67818 15.5683 3.8039 16.6785 3.45646 17.7035L2.65031 20.0816C2.38426 20.8665 3.13355 21.6158 3.91842 21.3497L6.29656 20.5436Z" fill="#8233C0" stroke="#8233C0" stroke-width="1.5" stroke-linecap="round" stroke-linejoin="round"/>
<path d="M12.1051 8.01064C12.7484 8.01064 13.3913 8.012 14.0346 8.00996C14.3774 8.00894 14.7202 7.9977 15.0626 8.00042C15.0731 8.00042 15.084 8.00213 15.0945 8.00519C15.1788 8.02801 15.1807 8.14585 15.096 8.16731C15.096 8.16731 15.0949 8.16731 15.0945 8.16765C14.5026 8.30865 14.0295 8.63901 13.5944 9.01705C12.8754 9.64201 12.2025 10.3089 11.4951 10.9454C11.3843 11.0626 11.2964 11.1453 11.1671 11.2669C11.6598 11.4999 12.0617 11.7808 12.4016 12.1579C13.022 12.8455 13.6186 13.5518 14.2409 14.2374C14.5754 14.6059 14.9378 14.953 15.2976 15.3C15.6013 15.5929 15.9771 15.7666 16.406 15.8402C16.4133 15.8416 16.4205 15.8443 16.4274 15.8484C16.4955 15.8879 16.46 15.989 16.38 15.9894C15.5647 15.9948 14.7499 16.0735 13.9813 15.7036C13.5281 15.4853 13.1958 15.1505 12.8881 14.7892C12.2372 14.0239 11.6283 13.2715 10.9641 12.5322C10.6868 12.3016 10.5662 12.166 10.3765 12.0424C10.2987 11.9917 10.1984 11.9927 10.1058 12.0547C9.76909 12.3064 9.41903 12.4709 9.00273 12.6493C8.16615 12.9487 7.34078 12.9027 6.53677 12.5679C5.76607 12.2464 5.21474 11.7151 5.04388 10.9185C4.89473 10.222 5.13329 9.61783 5.64553 9.09572C6.064 8.66898 6.59108 8.5416 7.17679 8.54024C7.57644 8.53922 7.58332 8.53956 7.61228 8.90977C7.66767 9.62158 7.41572 10.22 6.81117 10.66C6.55849 10.8439 6.26346 10.9754 5.93006 10.9791C5.86599 10.9798 5.75521 10.9406 5.74616 10.9025C5.72046 10.7976 5.70815 10.6712 5.85295 10.6144C5.99015 10.5602 6.13061 10.5135 6.26853 10.4611C6.79959 10.2595 7.01426 9.84499 7.10729 9.35116C7.12503 9.25716 7.13516 9.1618 7.14096 9.06643C7.14783 8.95915 7.10584 8.90806 6.97335 8.90875C6.46763 8.91181 5.81132 9.27827 5.54923 9.87156C5.06741 10.9628 5.87142 12.009 6.83398 12.3414C7.51418 12.5764 8.18135 12.5499 8.85793 12.3285C9.15876 12.2301 9.42845 12.0952 9.70103 11.9372C10.0301 11.7461 10.3682 11.5312 10.6527 11.2788C11.1458 10.8412 11.6084 10.3715 12.066 9.90017C12.3353 9.62294 12.5771 9.32085 12.8175 9.02046C12.9286 8.8815 12.958 8.70815 12.912 8.53649C12.8541 8.31887 12.6285 8.21295 12.3563 8.16288C12.2669 8.14653 12.175 8.12576 12.0845 8.10634C12.0845 8.10634 12.091 8.07705 12.0942 8.06241C12.0979 8.04504 12.1051 8.0103 12.1055 8.01064H12.1051Z" fill="white"/>
<path d="M7.97568 8.19862C8.34275 8.23097 8.65624 8.52182 8.65878 8.86547C8.66638 9.8259 8.6624 10.7863 8.66276 11.7464C8.66276 11.8646 8.66276 11.9831 8.66276 12.104C8.66276 12.1425 8.70294 12.1708 8.74168 12.1585C9.19164 12.0162 9.56414 11.7784 9.91456 11.5073C9.98189 11.4583 9.99312 11.381 9.99456 11.3156C10.0116 10.5418 10.0351 9.768 10.0271 8.99421C10.0232 8.61378 10.2889 8.18397 10.8619 8.16251C10.8677 8.16251 10.8731 8.16149 10.8789 8.16047C10.9557 8.14651 10.9448 8.03412 10.867 8.03241C10.8663 8.03241 10.8652 8.03241 10.8652 8.03241C9.83022 8.02935 8.79525 8.03037 7.76029 8.03105C7.75667 8.03105 7.75269 8.03105 7.74907 8.03105C7.66943 8.03241 7.65241 8.13731 7.72807 8.16047L7.97604 8.19862H7.97568Z" fill="white"/>
<path d="M8.72947 12.9974C9.13781 12.9395 9.56498 12.7392 9.92481 12.4286C9.95304 12.4044 9.99829 12.4235 9.99829 12.4593C9.99829 12.4971 9.99829 12.5291 9.99829 12.5614C10.0095 13.3638 9.99395 14.1676 10.0417 14.9683C10.0743 15.5122 10.3549 15.7901 10.9301 15.8047C10.954 15.8054 10.9797 15.8078 11.001 15.8136C11.0148 15.8174 11.0267 15.8197 11.039 15.8265C11.102 15.8623 11.0876 15.957 11.0152 15.9686C11.0112 15.9692 11.0068 15.9696 11.0028 15.9696C10.5156 15.9754 10.0283 15.973 9.54108 15.973C8.92785 15.973 8.33417 15.9737 7.71732 15.9737C7.71334 15.9706 7.70972 15.9675 7.70646 15.9645C7.66591 15.9284 7.66266 15.8664 7.70501 15.832C7.71587 15.8231 7.7289 15.8167 7.74483 15.8156C8.47825 15.8122 8.63825 15.393 8.6578 14.7847C8.67373 14.282 8.65997 13.7787 8.66214 13.2756C8.66214 13.2034 8.65888 13.1336 8.66685 13.058C8.67011 13.0267 8.69617 13.0021 8.72911 12.9977L8.72947 12.9974Z" fill="white"/>
<path d="M17.3737 15.9393C17.0555 15.939 16.7923 15.7043 16.7898 15.4189C16.7876 15.1614 17.0837 14.9213 17.403 14.922C17.7368 14.9227 17.9967 15.1434 18 15.4284C18.0032 15.7268 17.7422 15.9396 17.3737 15.9393Z" fill="white"/>
<path d="M5.81907 10.3286C5.88061 9.89812 6.25239 9.47784 6.63937 9.41586C6.67882 9.40973 6.70453 9.454 6.67882 9.48261C6.41601 9.77755 6.16261 10.0616 5.89654 10.3596C5.86866 10.3909 5.81328 10.3691 5.81907 10.3286Z" fill="white"/>
</svg>
