<svg width="67" height="44" viewBox="0 0 67 44" fill="none" xmlns="http://www.w3.org/2000/svg">
<g clip-path="url(#clip0_199_33622)">
<path fill-rule="evenodd" clip-rule="evenodd" d="M39.2777 0.0582612L39.2777 0.0582612C41.6342 0.0597771 43.9902 0.0612927 46.3472 0.0533344C47.0904 0.0509799 47.8336 0.0386746 48.5767 0.0263716C49.5919 0.00956434 50.6068 -0.00723859 51.621 0.0013387C51.6749 0.0013387 51.7306 0.0106236 51.7845 0.0273365C52.2171 0.151755 52.2264 0.794272 51.7919 0.911263C51.79 0.911263 51.7863 0.911263 51.7845 0.91312C48.7483 1.68191 46.3212 3.48319 44.0891 5.54445C41.9647 7.50736 39.9185 9.54606 37.8718 11.5853C36.3654 13.0861 34.8588 14.5873 33.3204 16.0587C32.7522 16.6975 32.3009 17.1488 31.638 17.8117C34.1653 19.0819 36.2266 20.6139 37.9703 22.6696C39.4937 24.4641 40.9891 26.282 42.4842 28.0997C44.1129 30.0797 45.7414 32.0594 47.4057 34.0084C49.039 35.9209 50.8018 37.7275 52.5597 39.529L52.8262 39.8022C54.3842 41.3992 56.3118 42.3462 58.5123 42.7473C58.5495 42.7548 58.5866 42.7696 58.6219 42.7919C58.971 43.0073 58.789 43.5588 58.3786 43.5607C57.7909 43.5649 57.2032 43.577 56.6162 43.589H56.616H56.6157H56.6155C53.026 43.6627 49.4623 43.7358 46.0742 42.0027C43.7493 40.8124 42.0445 38.9869 40.4661 37.0167C39.398 35.6819 38.352 34.3543 37.3116 33.0339L37.3114 33.0336C35.0997 30.2266 32.9136 27.4522 30.5962 24.7104C30.0572 24.234 29.6336 23.832 29.2625 23.4798C28.6542 22.9024 28.1867 22.4587 27.5823 22.0401C27.1831 21.7634 26.6687 21.7689 26.1933 22.1069C24.4663 23.4792 22.6706 24.3762 20.5351 25.3492C16.2436 26.9815 12.0096 26.7308 7.88526 24.9054C3.93173 23.1524 1.10354 20.2555 0.22704 15.912C-0.538039 12.1145 0.685716 8.82017 3.31335 5.97341C5.46003 3.64661 8.16381 2.95209 11.1684 2.94466C13.2185 2.93909 13.2538 2.94095 13.4024 4.9595C13.6865 8.8406 12.394 12.1033 9.29285 14.5026C7.99668 15.5053 6.48323 16.2221 4.77295 16.2426C4.44426 16.2463 3.87602 16.0327 3.8296 15.8247C3.69775 15.2528 3.63461 14.5638 4.37741 14.2537C4.77427 14.0872 5.17645 13.9337 5.57861 13.7802C5.88965 13.6615 6.20068 13.5428 6.50923 13.4181C9.23343 12.3187 10.3346 10.0588 10.8119 7.36615C10.9029 6.85362 10.9549 6.33367 10.9846 5.81371C11.0199 5.22876 10.8044 4.95021 10.1248 4.95393C7.53057 4.97064 4.16385 6.96876 2.8194 10.2036C0.347744 16.1534 4.47211 21.8581 9.40984 23.6705C12.8991 24.9518 16.3216 24.807 19.7923 23.5999C21.3354 23.0633 22.7189 22.3279 24.1172 21.4663C25.8052 20.4245 27.5396 19.2527 28.9992 17.8767C31.5284 15.4905 33.9017 12.9297 36.2489 10.3596C37.6305 8.84803 38.871 7.20088 40.104 5.56302C40.6741 4.80537 40.8245 3.86016 40.5887 2.92424C40.2915 1.73762 39.1346 1.1601 37.7382 0.887122C37.3771 0.816954 37.008 0.731825 36.6408 0.647137C36.5415 0.624245 36.4424 0.601385 36.3436 0.578862C36.3424 0.578862 36.3575 0.508305 36.3728 0.437538L36.3729 0.437003C36.3805 0.401481 36.3882 0.365952 36.3937 0.33931C36.4121 0.245529 36.4487 0.0588817 36.4512 0.0570483C37.3935 0.0570491 38.3356 0.0576552 39.2777 0.0582612ZM15.2676 1.08215C17.1505 1.25856 18.7587 2.84443 18.7717 4.71813C18.8001 8.52667 18.797 12.3352 18.7939 16.143V16.1432V16.1434V16.1437C18.7928 17.5713 18.7916 18.9989 18.7921 20.4264V22.3762C18.7921 22.5861 18.9982 22.7402 19.1969 22.6733C21.5052 21.8971 23.416 20.601 25.2136 19.1228C25.559 18.8554 25.6165 18.4338 25.624 18.0773C25.6389 17.354 25.6549 16.6307 25.6708 15.9074L25.6708 15.9072C25.7479 12.4115 25.825 8.91578 25.7911 5.42007C25.7707 3.34582 27.1337 1.0023 30.0733 0.88531C30.1014 0.88531 30.1278 0.880343 30.1556 0.875099L30.1606 0.874168C30.5543 0.798032 30.4986 0.185226 30.0993 0.175941H30.09C25.1893 0.160514 20.2886 0.164074 15.3878 0.167634L14.1626 0.168513H14.1051C13.6965 0.175941 13.6093 0.747893 13.9974 0.874168L15.2694 1.08215H15.2676ZM25.2636 24.1459C23.4178 25.8394 21.2265 26.9313 19.1319 27.247L19.13 27.2489C18.961 27.273 18.8273 27.4067 18.8106 27.5776C18.779 27.8969 18.7819 28.1973 18.7848 28.4995V28.4996C18.7856 28.5875 18.7865 28.6755 18.7865 28.7642C18.7826 29.722 18.7886 30.68 18.7947 31.638C18.806 33.4234 18.8174 35.2087 18.7642 36.9925C18.6639 40.3091 17.8431 42.595 14.0809 42.6136C13.9991 42.6192 13.9323 42.6545 13.8766 42.7027C13.6593 42.8903 13.676 43.2283 13.884 43.4251C13.9007 43.4418 13.9193 43.4585 13.9397 43.4752C15.5201 43.4752 17.0709 43.4743 18.6193 43.4734L18.6313 43.4734H18.638H18.6446C20.188 43.4725 21.7292 43.4715 23.2952 43.4715C23.8596 43.4715 24.424 43.4722 24.9883 43.4729H24.9892C26.924 43.4751 28.8589 43.4774 30.7937 43.453C30.8142 43.453 30.8365 43.4511 30.8569 43.4474C31.2283 43.3842 31.3026 42.868 30.9794 42.673C30.9271 42.6422 30.8759 42.628 30.8198 42.6124L30.7845 42.6025C30.6749 42.5709 30.5431 42.5579 30.4205 42.5542C27.4697 42.4743 26.0306 40.959 25.8634 37.9934C25.6912 34.9251 25.6794 31.8486 25.6677 28.7721V28.7721V28.7721C25.6627 27.4712 25.6577 26.1703 25.6406 24.8701V24.313C25.6406 24.118 25.4085 24.014 25.2636 24.1459ZM63.4739 43.288C61.8416 43.2862 60.4916 42.0067 60.4786 40.4506C60.4674 39.0467 61.9865 37.7375 63.6243 37.7412C65.3365 37.7449 66.6698 38.9483 66.6865 40.5026C66.7032 42.1293 65.3643 43.2899 63.4739 43.288ZM8.41127 7.71896C6.42615 8.05693 4.51902 10.3485 4.20333 12.6957C4.17362 12.9167 4.45774 13.0355 4.60073 12.8647C5.96561 11.2398 7.26551 9.69108 8.61368 8.08292C8.74553 7.92694 8.61368 7.68553 8.41127 7.71896Z" fill="white"/>
</g>
<defs>
<clipPath id="clip0_199_33622">
<rect width="66.69" height="43.6206" fill="white" transform="translate(0.00195312)"/>
</clipPath>
</defs>
</svg>
