<svg width="24" height="25" viewBox="0 0 24 25" fill="none" xmlns="http://www.w3.org/2000/svg">
<path fill-rule="evenodd" clip-rule="evenodd" d="M20.5968 5.09899C21.544 5.36239 22.2883 6.13567 22.5418 7.11968H22.54C23 8.90143 23 12.6211 23 12.6211C23 12.6211 23 16.3408 22.54 18.1225C22.2865 19.1065 21.5421 19.8798 20.595 20.1432C18.88 20.6211 12 20.6211 12 20.6211C12 20.6211 5.12002 20.6211 3.405 20.1432C2.45785 19.8798 1.71353 19.1065 1.45999 18.1225C1 16.3408 1 12.6211 1 12.6211C1 12.6211 1 8.90143 1.45999 7.11968C1.71353 6.13567 2.45785 5.36239 3.405 5.09899C5.12002 4.62109 12 4.62109 12 4.62109C12 4.62109 18.88 4.62109 20.5968 5.09899ZM15.5172 12.6209L9.79984 16.0489V9.19287L15.5172 12.6209Z" fill="black"/>
</svg>
