<svg width="24" height="25" viewBox="0 0 24 25" fill="none" xmlns="http://www.w3.org/2000/svg">
<path fill-rule="evenodd" clip-rule="evenodd" d="M4.47551 2.75977H19.5292C21.4487 2.75977 23.0047 4.35053 23.0047 6.31363V14.7433C23.0047 16.7064 21.4487 18.2972 19.5292 18.2972H14.3437L12.5741 21.233C12.5741 21.233 12.5587 21.2675 12.5146 21.3208C12.4109 21.4997 12.222 21.621 12.0024 21.621C11.7827 21.621 11.5918 21.4986 11.4881 21.3177C11.4501 21.2685 11.4306 21.234 11.4306 21.234L9.66107 18.2982H4.47551C2.55608 18.2982 1 16.7075 1 14.7444V6.31363C1 4.35053 2.55608 2.75977 4.47551 2.75977ZM8.20213 6.99707V8.30684C8.20213 8.30684 8.81954 8.27889 8.81954 9.43335V12.7849H10.1234V9.12377C10.1234 9.12377 10.1791 6.99707 8.20213 6.99707ZM5.86126 8.74387C5.85289 8.74389 5.25453 8.74762 4.71104 9.27917V7.12451H3.35768V12.786H4.72444V12.3429C4.72444 12.3429 5.04707 12.9279 5.86032 12.9279C5.86032 12.9279 7.76719 12.8575 7.76719 10.8147C7.76719 10.8147 7.69713 8.74458 5.86126 8.74387ZM5.56347 11.732C5.08314 11.732 4.69352 11.3406 4.69352 10.8581C4.69352 10.3756 5.08314 9.9853 5.56347 9.9853C6.04379 9.9853 6.43238 10.3767 6.43238 10.8581C6.43238 11.3396 6.04276 11.732 5.56347 11.732ZM11.0769 10.8589C11.0769 8.76221 13.3126 8.76221 13.3126 8.76221C15.674 8.76221 15.5998 10.8589 15.5998 10.8589C15.5998 12.9245 13.3126 12.9276 13.3126 12.9276C11.0048 12.9276 11.0769 10.8589 11.0769 10.8589ZM12.4426 10.8589C12.4426 11.3414 12.8323 11.7328 13.3126 11.7328C13.7919 11.7328 14.1815 11.3403 14.1815 10.8589C14.1815 10.3774 13.7929 9.98604 13.3126 9.98604C12.8323 9.98604 12.4426 10.3764 12.4426 10.8589ZM19.3319 8.9003V9.28029C19.3319 9.28029 18.9433 8.7626 18.197 8.7626C18.197 8.7626 16.2829 8.68184 16.2829 10.8448C16.2829 10.8448 16.2613 12.8607 18.1445 12.8607C18.1445 12.8607 18.9124 12.8917 19.3319 12.343V12.6598C19.3319 12.6598 19.4267 13.6528 18.4702 13.6528H18.1445V14.8569H18.6701C18.6701 14.8569 20.6471 14.8787 20.6471 12.7344V8.9003H19.3329H19.3319ZM18.5238 11.7331C18.0435 11.7331 17.6549 11.3418 17.6549 10.8593C17.6549 10.3768 18.0435 9.98643 18.5238 9.98643C19.0041 9.98643 19.3927 10.3778 19.3927 10.8593C19.3927 11.3407 19.0031 11.7331 18.5238 11.7331Z" fill="black"/>
</svg>
