<svg width="28" height="29" viewBox="0 0 28 29" fill="none" xmlns="http://www.w3.org/2000/svg">
<path d="M11.4585 12.0254L12.148 14.0021H10.7691L11.4585 12.0254Z" fill="black"/>
<path fill-rule="evenodd" clip-rule="evenodd" d="M2 13.1408C2 7.88188 7.37139 3.62036 13.9955 3.62036C20.6196 3.62036 26 7.88641 26 13.1453C26 18.4042 20.6286 22.6657 14.0045 22.6657C13.279 22.6657 12.5625 22.6159 11.8731 22.5161C11.8199 22.5534 11.7477 22.6041 11.6595 22.6662C10.588 23.4195 7.15333 25.8343 6.8036 25.8845C6.8036 25.8845 6.64589 25.9435 6.51521 25.8664C6.38453 25.7893 6.40706 25.5853 6.40706 25.5853L7.62373 21.2105C4.24409 19.5195 2 16.5409 2 13.1408ZM7.3601 16.4592C7.36086 16.4592 7.36162 16.4592 7.36238 16.4592H7.35787C7.35862 16.4592 7.35936 16.4592 7.3601 16.4592ZM6.66843 15.7928C6.66843 16.1593 6.97812 16.458 7.3601 16.4592C7.73763 16.458 8.05183 16.1548 8.05183 15.7928V11.6537H9.13332C9.50282 11.6537 9.80925 11.3499 9.80925 10.9737C9.80925 10.5974 9.50733 10.2936 9.13332 10.2936H5.58694C5.21743 10.2936 4.91101 10.5974 4.91101 10.9737C4.91101 11.3499 5.21293 11.6537 5.58694 11.6537H6.66843V15.7928ZM12.8554 16.1419C12.923 16.3323 13.1438 16.4502 13.4322 16.4502C13.5854 16.4502 13.7386 16.423 13.8738 16.3595C14.0631 16.2779 14.2478 16.0285 14.0361 15.3712L12.3823 10.9873C12.2696 10.6518 11.9091 10.2891 11.4585 10.2982C11.0079 10.3072 10.6519 10.6518 10.5347 10.9873L8.88097 15.3712C8.66918 16.0285 8.85393 16.2688 9.04319 16.3595C9.18288 16.4184 9.33159 16.4502 9.4848 16.4502C9.7732 16.4502 9.994 16.3323 10.0616 16.1419L10.4041 15.2352H12.513L12.8554 16.1419ZM14.4867 15.7248C14.4867 16.0739 14.7886 16.3595 15.1491 16.3595L17.3706 16.3459C17.7356 16.3459 18.0331 16.0603 18.0331 15.7112C18.0331 15.3621 17.7311 15.0765 17.3706 15.0765H15.9016V10.9873C15.9016 10.6064 15.5862 10.2891 15.1941 10.2891C14.8021 10.2891 14.4867 10.6019 14.4867 10.9873V15.7248ZM18.2989 10.9918V15.752C18.2989 16.6779 19.6868 16.643 19.6868 15.7384V14.2197L19.9257 13.9794L21.5479 16.1419C21.7657 16.429 22.2126 16.5046 22.5167 16.2779C22.8252 16.0615 22.8808 15.6025 22.6519 15.3077L20.9486 13.0409L22.5347 11.4542C22.7742 11.2091 22.7145 10.8191 22.4852 10.5883C22.241 10.3427 21.8378 10.3238 21.6245 10.5384L19.6868 12.4879V10.9918C19.6868 10.611 19.3714 10.2936 18.9929 10.2936C18.6144 10.2936 18.2989 10.6064 18.2989 10.9918Z" fill="black"/>
</svg>
