<svg width="67" height="44" viewBox="0 0 67 44" fill="none" xmlns="http://www.w3.org/2000/svg">
<g clip-path="url(#clip0_329_3935)">
<path d="M36.447 0.247478C39.7469 0.247478 43.0449 0.254906 46.3447 0.243764C48.1033 0.238193 49.8619 0.176912 51.6186 0.191768C51.6724 0.191768 51.7282 0.201053 51.782 0.217766C52.2147 0.342184 52.224 0.984702 51.7894 1.10169C51.7876 1.10169 51.7839 1.10169 51.782 1.10355C48.7458 1.87234 46.3187 3.67362 44.0867 5.73488C40.3987 9.14245 36.9465 12.7784 33.318 16.2491C32.7497 16.8879 32.2985 17.3392 31.6355 18.0021C34.1629 19.2723 36.2242 20.8043 37.9679 22.86C41.1508 26.6093 44.2111 30.4607 47.4032 34.1988C49.1191 36.208 50.9779 38.1003 52.8238 39.9926C54.3818 41.5896 56.3093 42.5367 58.5099 42.9378C58.547 42.9452 58.5842 42.9601 58.6194 42.9823C58.9686 43.1978 58.7866 43.7493 58.3762 43.7511C54.1942 43.7808 50.0142 44.2098 46.0718 42.1931C43.7468 41.0028 42.0421 39.1774 40.4637 37.2071C37.1248 33.0345 34.0014 28.9324 30.5938 24.9009C29.1713 23.6437 28.5529 22.9046 27.5799 22.2305C27.1806 21.9538 26.6662 21.9594 26.1909 22.2973C24.4639 23.6697 22.6682 24.5666 20.5326 25.5397C16.2411 27.1719 12.0072 26.9212 7.88282 25.0958C3.92929 23.3428 1.1011 20.4459 0.224599 16.1024C-0.54048 12.3049 0.683275 9.0106 3.31091 6.16384C5.45759 3.83704 8.16136 3.14252 11.166 3.13509C13.2161 3.12952 13.2514 3.13138 13.3999 5.14993C13.684 9.03103 12.3916 12.2938 9.29041 14.693C7.99424 15.6958 6.48079 16.4126 4.7705 16.433C4.44182 16.4367 3.87358 16.2231 3.82716 16.0152C3.69531 15.4432 3.63217 14.7543 4.37497 14.4441C5.07876 14.1489 5.79928 13.8945 6.50679 13.6085C9.23099 12.5092 10.3322 10.2492 10.8094 7.55658C10.9004 7.04405 10.9524 6.5241 10.9821 6.00414C11.0174 5.41919 10.802 5.14064 10.1223 5.14435C7.52813 5.16107 4.16141 7.15919 2.81695 10.3941C0.345303 16.3438 4.46967 22.0485 9.4074 23.8609C12.8967 25.1423 16.3191 24.9974 19.7898 23.7904C21.333 23.2537 22.7164 22.5183 24.1147 21.6567C25.8027 20.6149 27.5372 19.4432 28.9968 18.0671C31.526 15.6809 33.8992 13.1201 36.2464 10.55C37.628 9.03846 38.8685 7.39131 40.1016 5.75345C40.6716 4.9958 40.8221 4.05059 40.5862 3.11467C40.2891 1.92805 39.1322 1.35053 37.7358 1.07755C37.2771 0.988416 36.8054 0.87514 36.3412 0.769292C36.3393 0.769292 36.3746 0.609591 36.3913 0.52974C36.4099 0.435034 36.447 0.245621 36.4489 0.247478H36.447Z" fill="black"/>
<path d="M15.2641 1.27209C17.1471 1.44851 18.7553 3.03437 18.7683 4.90807C18.8073 10.1448 18.7868 15.3815 18.7887 20.6163C18.7887 21.2607 18.7887 21.9069 18.7887 22.5662C18.7887 22.776 18.9948 22.9301 19.1935 22.8633C21.5018 22.0871 23.4126 20.7909 25.2102 19.3127C25.5556 19.0453 25.6131 18.6238 25.6206 18.2672C25.7078 14.0482 25.8285 9.82909 25.7877 5.61002C25.7673 3.53576 27.1303 1.19224 30.0699 1.07525C30.0996 1.07525 30.1275 1.06968 30.1572 1.06411C30.5509 0.987973 30.4952 0.375167 30.0959 0.365882C30.0922 0.365882 30.0885 0.365882 30.0866 0.365882C24.7775 0.349169 19.4684 0.35474 14.1592 0.358454C14.1407 0.358454 14.1202 0.358454 14.1017 0.358454C13.6931 0.365882 13.6058 0.937835 13.994 1.06411L15.266 1.27209H15.2641Z" fill="black"/>
<path d="M19.1309 27.4375C21.2256 27.1218 23.4168 26.0299 25.2627 24.3363C25.4075 24.2044 25.6396 24.3084 25.6396 24.5034C25.6396 24.7095 25.6396 24.8841 25.6396 25.0605C25.6972 29.4356 25.6173 33.8181 25.8625 38.1838C26.0296 41.1495 27.4688 42.6648 30.4195 42.7446C30.5421 42.7483 30.6739 42.7613 30.7835 42.7929C30.854 42.8133 30.9153 42.8263 30.9785 42.8635C31.3016 43.0584 31.2273 43.5747 30.8559 43.6378C30.8355 43.6415 30.8132 43.6434 30.7928 43.6434C28.2933 43.675 25.7938 43.662 23.2943 43.662C20.1485 43.662 17.1031 43.6657 13.9387 43.6657C13.9183 43.649 13.8997 43.6322 13.883 43.6155C13.6751 43.4187 13.6583 43.0807 13.8756 42.8932C13.9313 42.8449 13.9982 42.8096 14.0799 42.804C17.8421 42.7855 18.6629 40.4995 18.7632 37.1829C18.8449 34.442 18.7743 31.6974 18.7855 28.9546C18.7855 28.5609 18.7688 28.1802 18.8096 27.768C18.8263 27.5972 18.96 27.4635 19.129 27.4393L19.1309 27.4375Z" fill="black"/>
<path d="M63.4739 43.4775C61.8416 43.4756 60.4916 42.1962 60.4786 40.64C60.4674 39.2361 61.9865 37.927 63.6243 37.9307C65.3365 37.9344 66.6698 39.1377 66.6865 40.692C66.7032 42.3187 65.3643 43.4793 63.4739 43.4775Z" fill="black"/>
<path d="M4.20089 12.8861C4.51658 10.5389 6.42371 8.24736 8.40883 7.90939C8.61124 7.87596 8.74308 8.11737 8.61124 8.27335C7.26306 9.88151 5.96317 11.4302 4.59829 13.0551C4.4553 13.2259 4.17118 13.1071 4.20089 12.8861Z" fill="black"/>
</g>
<defs>
<clipPath id="clip0_329_3935">
<rect width="66.69" height="43.6206" fill="white" transform="translate(0 0.189453)"/>
</clipPath>
</defs>
</svg>
